<svg version="1.2" xmlns="http://www.w3.org/2000/svg" viewBox="0 0 400 145" width="400" height="145">
	<title>ignITe-hub-logo-mcc-svg</title>
	<style>
		.s0 { fill: #6d6e71 } 
		.s1 { fill: #005991 } 
		.s2 { opacity: .5;mix-blend-mode: multiply;fill: #005991 } 
		.s3 { opacity: .2;mix-blend-mode: multiply;fill: #005991 } 
		.s4 { opacity: .7;mix-blend-mode: multiply;fill: #005991 } 
		.s5 { mix-blend-mode: multiply;fill: #005991 } 
		.s6 { opacity: .6;mix-blend-mode: multiply;fill: #0074bc } 
		.s7 { opacity: .4;mix-blend-mode: multiply;fill: #0074bc } 
		.s8 { opacity: .2;mix-blend-mode: multiply;fill: #0074bc } 
		.s9 { mix-blend-mode: multiply;fill: #0074bc } 
		.s10 { opacity: .6;mix-blend-mode: multiply;fill: #f26322 } 
		.s11 { opacity: .4;mix-blend-mode: multiply;fill: #f26322 } 
		.s12 { opacity: .8;mix-blend-mode: multiply;fill: #f26322 } 
		.s13 { mix-blend-mode: multiply;fill: #f26322 } 
		.s14 { opacity: .6;mix-blend-mode: multiply;fill: #fcb017 } 
		.s15 { opacity: .4;mix-blend-mode: multiply;fill: #fcb017 } 
		.s16 { opacity: .8;mix-blend-mode: multiply;fill: #fcb017 } 
		.s17 { mix-blend-mode: multiply;fill: #fcb017 } 
		.s18 { opacity: .6;mix-blend-mode: multiply;fill: #dc257f } 
		.s19 { opacity: .5;mix-blend-mode: multiply;fill: #dc257f } 
		.s20 { opacity: .2;mix-blend-mode: multiply;fill: #dc257f } 
		.s21 { opacity: .8;mix-blend-mode: multiply;fill: #dc257f } 
		.s22 { mix-blend-mode: multiply;fill: #dc257f } 
		.s23 { opacity: .4;mix-blend-mode: multiply;fill: #dc257f } 
		.s24 { fill: #f05339 } 
		.s25 { fill: #f05339;stroke: #f05339;stroke-width: .4 } 
	</style>
	<g id="Layer">
		<g id="Layer_1">
			<g id="Layer">
				<g id="Layer">
					<path id="Layer" class="s0" d="m146.7 43.1h-9.8v-10.5h9.8zm-9.8 62.5v-58.6h9.8v58.6z"/>
					<path id="Layer" fill-rule="evenodd" class="s0" d="m179.6 108.8c0 6.1-4.7 9.8-12.2 9.8-7.5 0-12.2-3.7-12.2-9.8v-7.3h9.6v6.4c0 3.1 1.2 3.6 2.4 3.6 1.2 0 2.4-0.5 2.4-3.6v-13h-0.2c-1.5 2.6-3.4 4-6.8 4-4.8 0-7.4-3-7.4-7.8v-37.1c0-4.8 2.6-7.8 7.4-7.8 2.7 0 5.1 1.9 7.2 4.2v-3.4h9.8v61.8zm-14.5-21.9c0 3.1 1.1 3.6 2.3 3.6 1.3 0 2.4-0.5 2.4-3.6v-28.7c0-3-1.1-3.6-2.4-3.6-1.2 0-2.3 0.6-2.3 3.6z"/>
					<path id="Layer" class="s0" d="m187.5 47h9.8v3.3h0.2c1.4-2.7 4.1-4.1 6.8-4.1 7.4 0 7.5 4.4 7.5 10.6v48.7h-9.8v-47.3c0-1.6-0.1-3.6-2.1-3.6-2.5 0-2.6 2-2.6 3.6v47.3h-9.8z"/>
					<path id="Layer" class="s1" d="m220.8 105.5v-72.9h10.8v72.9z"/>
					<path id="Layer" class="s1" d="m263.6 32.6v9.5h-9.5v63.4h-10.8v-63.4h-9.5v-9.5z"/>
					<path id="Layer" fill-rule="evenodd" class="s0" d="m286.9 82.5v13.9c0 6.1-4.7 9.9-12.2 9.9-7.4 0-12.1-3.8-12.1-9.9v-40.3c0-6.1 4.7-9.9 12.1-9.9 7.5 0 12.2 3.8 12.2 9.9v21.5h-14.5v18.6c0 2.7 0.9 2.9 2.4 2.9 1.4 0 2.3-0.2 2.3-2.9v-13.7c0 0 9.8 0 9.8 0zm-9.8-26.2c0-2.7-0.9-2.9-2.4-2.9-1.4 0-2.3 0.2-2.3 2.9v14.4h4.7v-14.4z"/>
					<path id="Layer" class="s0" d="m317.9 50.3h0.2c1.4-2.7 4.1-4.1 6.7-4.1 7.5 0 7.6 4.4 7.6 10.6v48.7h-9.8v-47.3c0-1.6-0.1-3.6-2.2-3.6-2.4 0-2.5 2-2.5 3.6v47.3h-9.9v-72.9h9.9z"/>
					<path id="Layer" class="s0" d="m364.7 105.5h-9.9v-3.3h-0.2c-1.4 2.7-4.1 4.1-6.7 4.1-7.8 0-7.6-5.1-7.6-11.2v-48.1h9.8v47.3c0 1.6 0.1 3.6 2.2 3.6 2.4 0 2.5-2 2.5-3.6v-47.3h9.9z"/>
					<path id="Layer" fill-rule="evenodd" class="s0" d="m372.6 32.6h9.8v18h0.2c1.4-2.2 3.9-4.4 7-4.4 3.8 0 7.3 2.1 7.3 6.9v46.3c0 4.8-3.5 6.9-7.3 6.9-2.9 0-5.5-2.1-7-4.3h-0.2v3.5h-9.9zm14.6 25.6c0-3-1.1-3.5-2.4-3.5-1.2 0-2.3 0.5-2.3 3.5v36.1c0 3 1.1 3.6 2.3 3.6 1.3 0 2.4-0.6 2.4-3.6z"/>
				</g>
				<g id="Layer">
					<g id="Layer">
						<path id="Layer" class="s2" d="m9.3 48.3c-3.8 0-6.9-3.1-6.9-6.9v-0.2c0-3.8 3.1-6.8 6.9-6.8 3.8 0 6.9 3 6.9 6.8v0.2c0 3.8-3.1 6.9-6.9 6.9z"/>
						<path id="Layer" class="s3" d="m9.3 37.5c-3.8 0-6.9-3-6.9-6.8v-0.2c0-3.8 3.1-6.9 6.9-6.9 3.8 0 6.9 3.1 6.9 6.9v0.2c0 3.8-3.1 6.8-6.9 6.8z"/>
						<path id="Layer" class="s4" d="m16.2 57.5v8.4c0 3.8-3.1 6.9-6.9 6.9-3.8 0-6.9-3.1-6.9-6.9v-8.4c0-3.8 3.1-6.9 6.9-6.9 3.8 0 6.9 3.1 6.9 6.9z"/>
						<path id="Layer" class="s5" d="m2.4 73.7v20.3c0 3.8 3.1 6.9 6.9 6.9 3.8 0 6.9-3.1 6.9-6.9v-20.3c0-3.8-3.1-6.9-6.9-6.9-3.8 0-6.9 3.1-6.9 6.9z"/>
					</g>
					<g id="Layer">
						<path id="Layer" class="s6" d="m29.1 57.3c-3.8 0-6.8-3.1-6.8-6.9v-0.2c0-3.8 3-6.9 6.8-6.9 3.8 0 6.9 3.1 6.9 6.9v0.2c0 3.8-3.1 6.9-6.9 6.9z"/>
						<path id="Layer" class="s7" d="m29.1 46.1c-3.8 0-6.8-3.1-6.8-6.9v-0.1c0-3.8 3-6.9 6.8-6.9 3.8 0 6.9 3.1 6.9 6.9v0.1c0 3.8-3.1 6.9-6.9 6.9z"/>
						<path id="Layer" class="s8" d="m29.1 27.2c-3.8 0-6.8-3.1-6.8-6.9v-0.2c0-3.8 3-6.8 6.8-6.8 3.8 0 6.9 3 6.9 6.8v0.2c0 3.8-3.1 6.9-6.9 6.9z"/>
						<path id="Layer" class="s6" d="m36 65.6v6.1c0 3.8-3.1 6.9-6.9 6.9-3.8 0-6.8-3.1-6.8-6.9v-6.1c0-3.8 3-6.9 6.8-6.9 3.8 0 6.9 3.1 6.9 6.9z"/>
						<path id="Layer" class="s9" d="m22.3 77.5v8.4c0 3.8 3.1 6.9 6.8 6.9 3.8 0 6.9-3.1 6.9-6.9v-8.4c0-3.8-3.1-6.9-6.9-6.9-3.8 0-6.8 3.1-6.8 6.9z"/>
					</g>
					<g id="Layer">
						<path id="Layer" class="s10" d="m88.7 34c-3.8 0-6.9-3.1-6.9-6.9v-0.2c0-3.8 3.1-6.9 6.9-6.9 3.7 0 6.8 3.1 6.8 6.9v0.2c0 3.8-3 6.9-6.8 6.9z"/>
						<path id="Layer" class="s11" d="m88.7 16.1c-3.8 0-6.9-3.1-6.9-6.8v-0.2c0-3.8 3.1-6.9 6.9-6.9 3.7 0 6.8 3.1 6.8 6.9v0.2c0 3.7-3 6.8-6.8 6.8z"/>
						<path id="Layer" class="s12" d="m95.5 43.2v6.1c0 3.8-3.1 6.8-6.9 6.8-3.7 0-6.8-3-6.8-6.8v-6.1c0-3.8 3.1-6.9 6.8-6.9 3.8 0 6.9 3.1 6.9 6.9z"/>
						<path id="Layer" class="s13" d="m81.8 54.6v28.9c0 3.8 3.1 6.8 6.9 6.8 3.7 0 6.8-3 6.8-6.8v-28.9c0-3.8-3-6.9-6.8-6.9-3.8 0-6.9 3.1-6.9 6.9z"/>
					</g>
					<g id="Layer">
						<path id="Layer" class="s14" d="m108.5 57.4c-3.8 0-6.9-3.1-6.9-6.9v-0.2c0-3.8 3.1-6.9 6.9-6.9 3.8 0 6.9 3.1 6.9 6.9v0.2c0 3.8-3.1 6.9-6.9 6.9z"/>
						<path id="Layer" class="s15" d="m108.5 46.2c-3.8 0-6.9-3.1-6.9-6.9v-0.1c0-3.8 3.1-6.9 6.9-6.9 3.8 0 6.9 3.1 6.9 6.9v0.1c0 3.8-3.1 6.9-6.9 6.9z"/>
						<path id="Layer" class="s16" d="m115.4 65.7v6.1c0 3.8-3.1 6.9-6.9 6.9-3.8 0-6.9-3.1-6.9-6.9v-6.1c0-3.8 3.1-6.9 6.9-6.9 3.8 0 6.9 3.1 6.9 6.9z"/>
						<path id="Layer" class="s17" d="m101.6 86.9v12c0 3.8 3.1 6.9 6.9 6.9 3.8 0 6.9-3.1 6.9-6.9v-12c0-3.8-3.1-6.9-6.9-6.9-3.8 0-6.9 3.1-6.9 6.9z"/>
					</g>
					<g id="Layer">
						<path id="Layer" class="s18" d="m49 63.8c-3.8 0-6.9-3.1-6.9-6.9v-0.2c0-3.8 3.1-6.9 6.9-6.9 3.8 0 6.8 3.1 6.8 6.9v0.2c0 3.8-3 6.9-6.8 6.9z"/>
						<path id="Layer" class="s19" d="m49 52.6c-3.8 0-6.9-3.1-6.9-6.9v-0.2c0-3.7 3.1-6.8 6.9-6.8 3.8 0 6.8 3.1 6.8 6.8v0.2c0 3.8-3 6.9-6.8 6.9z"/>
						<path id="Layer" class="s20" d="m49 35.9c-3.8 0-6.9-3.1-6.9-6.9v-0.2c0-3.8 3.1-6.9 6.9-6.9 3.8 0 6.8 3.1 6.8 6.9v0.2c0 3.8-3 6.9-6.8 6.9z"/>
						<path id="Layer" class="s21" d="m55.9 74.5v6.1c0 3.8-3.1 6.9-6.9 6.9-3.8 0-6.9-3.1-6.9-6.9v-6.1c0-3.8 3.1-6.8 6.9-6.8 3.8 0 6.9 3 6.9 6.8z"/>
						<path id="Layer" class="s22" d="m42.1 86.4v17.2c0 3.8 3.1 6.9 6.9 6.9 3.8 0 6.8-3.1 6.8-6.9v-17.2c0-3.8-3-6.9-6.8-6.9-3.8 0-6.9 3.1-6.9 6.9z"/>
					</g>
					<g id="Layer">
						<path id="Layer" class="s21" d="m68.8 79.9c-3.8 0-6.9-3.1-6.9-6.9v-0.2c0-3.8 3.1-6.8 6.9-6.8 3.8 0 6.9 3 6.9 6.8v0.2c0 3.8-3.1 6.9-6.9 6.9z"/>
						<path id="Layer" class="s18" d="m68.8 63.3c-3.8 0-6.9-3.1-6.9-6.8v-0.2c0-3.8 3.1-6.9 6.9-6.9 3.8 0 6.9 3.1 6.9 6.9v0.2c0 3.7-3.1 6.8-6.9 6.8z"/>
						<path id="Layer" class="s23" d="m68.8 48c-3.8 0-6.9-3.1-6.9-6.9v-0.2c0-3.8 3.1-6.9 6.9-6.9 3.8 0 6.9 3.1 6.9 6.9v0.2c0 3.8-3.1 6.9-6.9 6.9z"/>
						<path id="Layer" class="s22" d="m61.9 83v8.5c0 3.8 3.1 6.9 6.9 6.9 3.8 0 6.9-3.1 6.9-6.9v-8.5c0-3.8-3.1-6.9-6.9-6.9-3.8 0-6.9 3.1-6.9 6.9z"/>
					</g>
				</g>
				<g id="Layer">
					<g id="Layer">
						<path id="Layer" class="s24" d="m136.9 128.6h4l3.3 5.3 3.3-5.3h4v13.7h-3.8v-7.9l-3.5 5.4h-0.1l-3.5-5.3v7.8h-3.7v-13.7z"/>
						<path id="Layer" fill-rule="evenodd" class="s24" d="m153.4 135.5v-0.1c0-3.9 3.2-7.1 7.5-7.1 4.2 0 7.3 3.1 7.3 7.1 0 4-3.1 7.2-7.4 7.2-4.2 0-7.4-3.2-7.4-7.1zm11 0v-0.1c0-2-1.5-3.7-3.6-3.7-2.1 0-3.4 1.7-3.4 3.7 0 2 1.4 3.7 3.5 3.7 2 0 3.5-1.7 3.5-3.6z"/>
						<path id="Layer" class="s24" d="m170.2 128.6h3.6l5.6 7.2v-7.2h3.8v13.7h-3.3l-5.9-7.5v7.5h-3.8z"/>
						<path id="Layer" class="s24" d="m189 131.9h-4.1v-3.4h12v3.4h-4.1v10.4h-3.8c0 0 0-10.4 0-10.4z"/>
						<path id="Layer" class="s24" d="m197.5 135.5v-0.1c0-4 3.2-7.1 7.4-7.1 2.5 0 4.2 0.7 5.6 2l-2.2 2.7c-1-0.9-2-1.3-3.3-1.3-2 0-3.5 1.6-3.5 3.7v0.1c0 2.2 1.5 3.8 3.7 3.8 0.9 0 1.6-0.2 2.2-0.6v-1.7h-2.7v-2.7h6.3v6.1c-1.5 1.2-3.5 2.2-6 2.2-4.3 0-7.5-3-7.5-7.1z"/>
						<path id="Layer" fill-rule="evenodd" class="s24" d="m212.6 135.5v-0.1c0-3.9 3.2-7.1 7.4-7.1 4.3 0 7.4 3.1 7.4 7.1 0 4-3.2 7.2-7.4 7.2-4.2 0-7.4-3.2-7.4-7.1zm10.9 0v-0.1c0-2-1.4-3.7-3.5-3.7-2.1 0-3.5 1.7-3.5 3.7 0 2 1.5 3.7 3.5 3.7 2.1 0 3.5-1.7 3.5-3.6z"/>
						<path id="Layer" class="s24" d="m229.4 128.6h4l3.3 5.3 3.3-5.3h4v13.7h-3.8v-7.9l-3.5 5.4-3.5-5.3v7.8h-3.8v-13.7z"/>
						<path id="Layer" class="s24" d="m246.5 128.6h11v3.2h-7.3v2.1h6.6v3h-6.6v2.2h7.4v3.2h-11.1v-13.8z"/>
						<path id="Layer" fill-rule="evenodd" class="s24" d="m259.6 128.6h6.4c2.2 0 3.6 0.5 4.5 1.4q1.2 1.2 1.3 3.2v0.1c0 2.1-1.2 3.5-2.9 4.2l3.3 4.8h-4.4l-2.8-4.2h-1.6v4.2h-3.8zm6.3 6.6c1.3 0 2-0.6 2-1.6v-0.1c0-1.1-0.8-1.6-2-1.6h-2.5v3.3z"/>
						<path id="Layer" class="s24" d="m277.1 137.2l-5.2-8.6h4.4l2.8 5 2.8-5h4.3l-5.2 8.5v5.2h-3.9c0 0 0-5.1 0-5.1z"/>
						<path id="Layer" class="s24" d="m292.3 135.5v-0.1c0-4 3.1-7.1 7.3-7.1 2.8 0 4.6 1.2 5.8 2.8l-2.9 2.3c-0.8-1-1.7-1.6-3-1.6-1.9 0-3.3 1.6-3.3 3.6 0 2.1 1.4 3.7 3.3 3.7 1.5 0 2.3-0.7 3.1-1.7l2.9 2.1c-1.3 1.7-3 3.1-6.1 3.1-3.9 0-7.1-3-7.1-7.2z"/>
						<path id="Layer" fill-rule="evenodd" class="s24" d="m311.8 128.4h3.6l5.9 13.9h-4.1l-1-2.5h-5.3l-1 2.5h-4zm3.4 8.4l-1.6-3.9-1.5 3.9z"/>
						<path id="Layer" class="s24" d="m322.6 128.6h3.6l5.6 7.2v-7.2h3.8v13.7h-3.3l-5.9-7.5v7.5h-3.8z"/>
					</g>
					<path id="Layer" fill-rule="evenodd" class="s25" d="m373.4 141.9h5.1c4.1 0 7-2.8 7-6.5v-0.1c0-3.6-2.9-6.5-7-6.5h-5.1zm2.9-2.6v-7.9h2.2c2.4 0 4 1.7 4 4 0 2.3-1.6 3.9-4 3.9zm10.7-10.5v13.1h10v-2.6h-7.2v-2.7h6.2v-2.6h-6.2v-2.6h7.1v-2.6h-9.9zm-15.7 9.6c0.4-0.9 0.7-1.9 0.7-3h-0.1q0-0.3 0-0.6c-0.3-3.7-3.3-6.5-7.2-6.2-2.5 0.2-4.1 1.5-5.2 2.7-1 1.2-3.9 5.8-4.6 6.6-0.8 0.9-2 1.6-3.5 1.6-2.2 0-3.8-1.9-3.8-4.1v-0.1c0-2.2 1.6-4.1 3.8-4.1 1.3 0 2.4 0.6 3.4 1.5l1.8-2.1c-1.2-1.2-2.7-2-5.2-2-4 0-6.8 3-6.8 6.8 0 3.8 2.9 6.7 6.7 6.7 2.5 0 4.4-1.3 5.4-2.3 0.9-1 3.5-5.2 4.8-6.8 1.3-1.6 1.8-1.6 3.3-1.8 2.3-0.1 3.9 1.6 4.1 3.9q0.1 1.1-0.3 2 0 0.1-0.1 0.3c-0.6 1-1.5 1.8-2.8 2q-0.1 0-0.3 0.1c-1 0-1.9-0.3-2.7-0.8-0.6-0.4-1.1-1.1-1.4-1.8l-1.8 2.5q0.4 0.6 0.8 1.1 1.4 1.4 3.9 1.6 0.1 0 0.2 0 0.1 0 0.2 0 0.1 0 0.2 0 0.1 0 0.2 0 0.8 0 1.6-0.1 0.1-0.1 0.2-0.1c2-0.4 3.5-1.7 4.3-3.3q0.1 0 0.1-0.1 0 0 0.1-0.1z"/>
				</g>
				<g id="Layer">
					<path id="Layer" fill-rule="evenodd" class="s0" d="m217.7 113h3c1.8 0 2.9 1 2.9 2.6 0 1.7-1.4 2.6-3.1 2.6h-1.5v2.4h-1.3zm2.9 3.9c1 0 1.6-0.5 1.6-1.3 0-0.9-0.6-1.4-1.6-1.4h-1.6v2.7z"/>
					<path id="Layer" fill-rule="evenodd" class="s0" d="m226.8 116.8h-0.1c0-2.1 1.7-3.9 4-3.9 2.3 0 3.9 1.8 3.9 3.9 0 2.1-1.6 3.9-3.9 3.9-2.3 0-4-1.7-4-3.9zm6.6 0c0-1.4-1.1-2.7-2.6-2.7-1.5 0-2.6 1.2-2.6 2.7 0 1.5 1.1 2.7 2.6 2.7 1.5 0 2.6-1.2 2.6-2.7z"/>
					<path id="Layer" class="s0" d="m237.4 113h1.5l1.8 5.6 1.8-5.6h1.1l1.9 5.6 1.8-5.6h1.4l-2.6 7.7h-1.2l-1.8-5.5-1.9 5.5h-1.1l-2.7-7.7z"/>
					<path id="Layer" class="s0" d="m252.2 113h5.6v1.2h-4.3v2h3.8v1.2h-3.8v2h4.4v1.2h-5.7v-7.5z"/>
					<path id="Layer" fill-rule="evenodd" class="s0" d="m261.6 113h3.4c0.9 0 1.6 0.3 2.1 0.8 0.4 0.4 0.7 1 0.7 1.6v0.1c0 1.2-0.8 1.9-1.8 2.3l2 2.8h-1.6l-1.8-2.6h-1.7v2.6h-1.3v-7.5zm3.3 3.7c0.9 0 1.5-0.5 1.5-1.3 0-0.8-0.6-1.2-1.5-1.2h-2v2.5h2z"/>
					<path id="Layer" class="s0" d="m271.5 113h5.6v1.2h-4.2v2h3.8v1.2h-3.8v2h4.3v1.2h-5.6v-7.5z"/>
					<path id="Layer" fill-rule="evenodd" class="s0" d="m280.9 113h2.9c2.3 0 4 1.7 4 3.8 0 2.1-1.7 3.8-4 3.8h-2.9zm2.9 6.3c1.5 0 2.6-1 2.6-2.5 0-1.5-1.1-2.6-2.6-2.6h-1.5v5.1z"/>
					<path id="Layer" fill-rule="evenodd" class="s0" d="m296.9 113h3.4c0.9 0 1.6 0.3 2 0.7q0.5 0.5 0.5 1.3c0 0.9-0.5 1.4-1.1 1.7 0.9 0.3 1.5 0.8 1.5 1.8 0 1.4-1.1 2.1-2.8 2.1h-3.5zm3.1 3.2c0.9 0 1.5-0.4 1.5-1.1 0-0.6-0.5-0.9-1.4-0.9h-1.9v2c0 0 1.8 0 1.8 0zm0.4 3.2c0.9 0 1.5-0.4 1.5-1.1 0-0.6-0.5-1-1.6-1h-2.1v2.1c0 0 2.2 0 2.2 0z"/>
					<path id="Layer" class="s0" d="m308.8 117.6l-3-4.5h1.5l2.1 3.3 2.2-3.3h1.5l-3 4.5v3h-1.4c0 0 0-3 0.1-3z"/>
				</g>
			</g>
		</g>
	</g>
</svg>